<svg xmlns="http://www.w3.org/2000/svg" xmlns:xlink="http://www.w3.org/1999/xlink" width="500" zoomAndPan="magnify" viewBox="0 0 375 374.999991" height="500" preserveAspectRatio="xMidYMid meet" version="1.0"><defs><clipPath id="871fe6922d"><path d="M 143 145 L 218 145 L 218 180 L 143 180 Z M 143 145 " clip-rule="nonzero"/></clipPath><clipPath id="84edcf223d"><path d="M 113.496094 147.742188 L 216.972656 73.25 L 286.207031 169.421875 L 182.730469 243.914062 Z M 113.496094 147.742188 " clip-rule="nonzero"/></clipPath><clipPath id="37bea91d1a"><path d="M 113.496094 147.742188 L 216.972656 73.25 L 286.207031 169.421875 L 182.730469 243.914062 Z M 113.496094 147.742188 " clip-rule="nonzero"/></clipPath><clipPath id="ebbb96feae"><path d="M 175 176 L 221 176 L 221 193 L 175 193 Z M 175 176 " clip-rule="nonzero"/></clipPath><clipPath id="15835062d3"><path d="M 113.496094 147.742188 L 216.972656 73.25 L 286.207031 169.421875 L 182.730469 243.914062 Z M 113.496094 147.742188 " clip-rule="nonzero"/></clipPath><clipPath id="f02852d9c1"><path d="M 113.496094 147.742188 L 216.972656 73.25 L 286.207031 169.421875 L 182.730469 243.914062 Z M 113.496094 147.742188 " clip-rule="nonzero"/></clipPath><clipPath id="48a5306943"><path d="M 161 145 L 220 145 L 220 193 L 161 193 Z M 161 145 " clip-rule="nonzero"/></clipPath><clipPath id="1a37c089d8"><path d="M 113.496094 147.742188 L 216.972656 73.25 L 286.207031 169.421875 L 182.730469 243.914062 Z M 113.496094 147.742188 " clip-rule="nonzero"/></clipPath><clipPath id="46bb189084"><path d="M 113.496094 147.742188 L 216.972656 73.25 L 286.207031 169.421875 L 182.730469 243.914062 Z M 113.496094 147.742188 " clip-rule="nonzero"/></clipPath><clipPath id="b9eb40f760"><path d="M 190 176 L 225 176 L 225 214 L 190 214 Z M 190 176 " clip-rule="nonzero"/></clipPath><clipPath id="b42684e04b"><path d="M 113.496094 147.742188 L 216.972656 73.25 L 286.207031 169.421875 L 182.730469 243.914062 Z M 113.496094 147.742188 " clip-rule="nonzero"/></clipPath><clipPath id="09ca4eaee4"><path d="M 113.496094 147.742188 L 216.972656 73.25 L 286.207031 169.421875 L 182.730469 243.914062 Z M 113.496094 147.742188 " clip-rule="nonzero"/></clipPath><clipPath id="4fab8e4ecb"><path d="M 130 92 L 207 92 L 207 180 L 130 180 Z M 130 92 " clip-rule="nonzero"/></clipPath><clipPath id="4d5900a2c4"><path d="M 113.496094 147.742188 L 216.972656 73.25 L 286.207031 169.421875 L 182.730469 243.914062 Z M 113.496094 147.742188 " clip-rule="nonzero"/></clipPath><clipPath id="3bfb49417e"><path d="M 113.496094 147.742188 L 216.972656 73.25 L 286.207031 169.421875 L 182.730469 243.914062 Z M 113.496094 147.742188 " clip-rule="nonzero"/></clipPath><clipPath id="482c25f6eb"><path d="M 184 83 L 225 83 L 225 126 L 184 126 Z M 184 83 " clip-rule="nonzero"/></clipPath><clipPath id="3e15ae5d4f"><path d="M 113.496094 147.742188 L 216.972656 73.25 L 286.207031 169.421875 L 182.730469 243.914062 Z M 113.496094 147.742188 " clip-rule="nonzero"/></clipPath><clipPath id="65b5836a6e"><path d="M 113.496094 147.742188 L 216.972656 73.25 L 286.207031 169.421875 L 182.730469 243.914062 Z M 113.496094 147.742188 " clip-rule="nonzero"/></clipPath></defs><g clip-path="url(#871fe6922d)"><g clip-path="url(#84edcf223d)"><g clip-path="url(#37bea91d1a)"><path fill="#f1f0f0" d="M 185.433594 168.226562 L 147.59375 179.148438 L 143.914062 166.429688 L 217.574219 145.085938 L 185.433594 168.226562 " fill-opacity="1" fill-rule="nonzero"/></g></g></g><g clip-path="url(#ebbb96feae)"><g clip-path="url(#15835062d3)"><g clip-path="url(#f02852d9c1)"><path fill="#f1f0f0" d="M 220.722656 176.273438 L 175.410156 178.816406 L 176.171875 192.03125 L 200.722656 190.671875 L 220.722656 176.273438 " fill-opacity="1" fill-rule="nonzero"/></g></g></g><g clip-path="url(#48a5306943)"><g clip-path="url(#1a37c089d8)"><g clip-path="url(#46bb189084)"><path fill="#42b883" d="M 161.53125 185.429688 L 217.574219 145.085938 L 219.1875 161.066406 L 176.171875 192.03125 L 161.53125 185.429688 " fill-opacity="1" fill-rule="nonzero"/></g></g></g><g clip-path="url(#b9eb40f760)"><g clip-path="url(#b42684e04b)"><g clip-path="url(#09ca4eaee4)"><path fill="#42b883" d="M 220.722656 176.273438 L 224.515625 213.828125 L 190.105469 198.316406 Z M 220.722656 176.273438 " fill-opacity="1" fill-rule="nonzero"/></g></g></g><g clip-path="url(#4fab8e4ecb)"><g clip-path="url(#4d5900a2c4)"><g clip-path="url(#3bfb49417e)"><path fill="#42b883" d="M 147.59375 179.148438 L 130.617188 171.496094 L 204.617188 92.925781 L 207 117.320312 L 147.59375 179.148438 " fill-opacity="1" fill-rule="nonzero"/></g></g></g><g clip-path="url(#482c25f6eb)"><g clip-path="url(#3e15ae5d4f)"><g clip-path="url(#65b5836a6e)"><path fill="#42b883" d="M 184.222656 96.832031 L 215.734375 125.195312 L 224.519531 83.734375 Z M 184.222656 96.832031 " fill-opacity="1" fill-rule="nonzero"/></g></g></g></svg>