<svg version="1.2" xmlns="http://www.w3.org/2000/svg" viewBox="0 0 253 77" width="253" height="77"><defs><clipPath clipPathUnits="userSpaceOnUse" id="cp1"><path d="m32 60h16v16.03h-16z"/></clipPath><clipPath clipPathUnits="userSpaceOnUse" id="cp2"><path d="m8.36 7.78h61.39v66.59h-61.39z"/></clipPath></defs><style>.a{fill:#f6b737}.b{fill:#f59a3d}.c{fill:#2e2e30}</style><path class="a" d="m57.1 38.5c-1 4.3-3.2 7.9-6.1 11.2-1.4 1.7-3 3.4-4 5.3q-0.8 1.6-1.2 3.3c-0.3 1.2-0.2 2.3-0.4 3.5-0.3 1.9-2.1 2.2-3.8 2.2q-3.5 0-7-0.7c-0.2 0.1-0.5 0-0.5-0.2-0.2-1.1-0.4-2.2-0.6-3.3-0.4-2.3-1.2-4.5-2.6-6.3-1.3-1.7-2.9-3-4.3-4.6-2.7-3-4.2-6.8-4.6-10.8-0.3-3.6 0.5-7.4 2.4-10.6 2-3.3 5.3-5.4 8.9-6.5 4.1-1.3 8.7-1.6 12.9-1.1 4 0.6 8.1 2.5 10 6.3 1.9 3.7 1.8 8.3 0.9 12.3z"/><path fill-rule="evenodd" class="b" d="m45.4 51.7c-1.5-0.5-1.7-2.6-3.1-1.1-0.2 0.2-1.5 6.9-1.4 7.2 1.2 4.4 6.7-5.3 4.5-6.1zm-1.8-27.4c0.9-0.5 3.7-0.1 4.4-1.1 1.1-1.6-1.4-2.2-2.6-2.4-3.6-0.4-3.1 4.3-1.8 3.5zm3.2 2.6c-2.6 1-3 1.9-2.7 4.7 0.4 3.2 1.2 6.4 1.3 9.7 0 1.3-1 6.5-0.3 7.6 1.4 1.9 3.6-0.2 4.7-1.4 3.6-4.2 5.4-10.9 5.4-16.3 0-6-3.7-6.4-8.4-4.3z"/><g clip-path="url(#cp1)"><path class="b" d="m47.2 67.8c0 1-0.6 2-1.6 2.2 0.3 1-0.2 2-1.1 2.6 0.1 1-0.2 1.8-1 2.5-0.9 0.7-2.2 0.9-3.4 0.9-1.6 0-5.1-0.8-5-2.9-0.5-0.2-1.1-0.4-1.5-0.8-0.4-0.4-0.7-1-0.4-1.5 0.2-0.4 0.4-0.7 0.8-0.8-1-0.5-1.8-1.3-1.9-2.4-0.2-1 0.3-1.9 1.2-2.3-0.7-0.9-1.4-1.9-1.3-3.1 0.1-0.8 0.6-1.5 1.3-1.8q0.1-0.1 0.2-0.1 0.1 0.1 0.2 0.1 0.2-0.1 0.4-0.1 0.1 0.1 0.2 0.1 2.3 0.3 4.5 0.3c1.8 0 3.4-0.3 5.1-0.4 1.2-0.2 2.4 0.1 2.8 1.4 0.3 1.1 0 2.2-0.7 3.1 0.9 0.8 1.3 1.8 1.2 3z"/></g><g clip-path="url(#cp2)"><path fill-rule="evenodd" class="c" d="m44.3 73.3c-1 1-2.6 1-3.9 1-1.6 0-3.4 0-4.8-0.8-0.2-0.1-0.1-0.4 0.1-0.4 1.5 0.4 2.9 0.7 4.4 0.7 1.4 0 2.7-0.1 3.9-0.9 0.2-0.2 0.5 0.2 0.3 0.4zm0.8-3.1c-1.4 0.8-3.5 0.9-5.1 0.9-1.8 0.1-3.6-0.1-5.3-0.7-0.3 0-0.2-0.5 0.1-0.4 1.7 0.4 3.4 0.6 5.1 0.6q1.3-0.1 2.6-0.3c0.8-0.2 1.6-0.5 2.4-0.6 0.3 0 0.5 0.4 0.2 0.5zm-10.7-4.5c-0.2-0.1-0.2-0.5 0-0.4 1.8 0.1 3.6 0.3 5.3 0.2q1.5 0 2.9-0.3c0.8-0.1 1.6-0.4 2.4-0.4 0.2 0 0.3 0.3 0.1 0.4-1.5 0.7-3.5 0.8-5.2 0.9-1.8 0.1-3.8 0.1-5.5-0.4zm14.9-28c0.1 0.7-0.4 1.5-1.5 1.8q-0.4 0.1-0.8 0.1-0.3 0-0.6 0c-0.1-0.1-0.3-0.1-0.5-0.2-0.2-0.1-0.5-0.2-0.6-0.2-0.2 0.1-0.5 0.6-0.8 2.9v0.1c-0.6 5.2-0.8 10.5-0.5 15.8q0 0.1 0.1 0.3c0 0.5 0.1 1.1 0.1 1.6q0.3-0.1 0.6-0.1c0.3 0 0.4 0.5 0.1 0.6-1.7 0.3-3.5 0.4-5.2 0.4-1.8 0.1-3.6 0.1-5.3-0.2-0.2-0.1-0.2-0.5 0.1-0.5q0.6 0 1.3 0c0-0.8 0-2 0.1-3.6 0-0.5 0.1-0.8 0.1-1 0-1.9 0-4.3 0-6.6 0-2-0.1-4.1-0.7-6.1q0-0.1-0.1-0.2c-0.1-0.6-0.5-2-1-2.2q0 0 0 0c-0.1 0-0.4 0.1-0.7 0.2-0.4 0.2-0.9 0.4-1.2 0.4q-0.1 0-0.1 0c-0.5 0-1.2-0.2-1.4-0.7-0.1-0.2-0.1-0.5 0.2-0.9 0.4-0.5 1-0.8 1.7-0.8q0.1 0 0.2 0c0.1 0.1 0.3 0.1 0.5 0.2 0.2 0.1 0.4 0.1 0.5 0.1q0 0 0 0c0.2 0 0.3-0.3 0.5-0.6v-0.2c0.2-0.3 0.3-0.7 0.3-1 0-0.4-0.1-0.5-0.2-0.7q-0.2-0.1-0.3-0.3c-0.5-0.7-1.3-2.6-0.9-3.7q0.2-0.7 1-0.9 0.2-0.1 0.4-0.1 0.4 0 0.7 0.3c0.6 0.7 0.6 2.1 0.6 2.7 0 0.1-0.1 0.3-0.1 0.6-0.1 0.4-0.3 1.2-0.2 1.4 0.2 0.2 0.5 0.2 0.7 0.2 0.4 0 0.9-0.2 1.1-0.3 0.3-0.2 0.7-0.5 0.8-0.8 0.1-0.3 0-0.5 0-0.8q-0.1-0.2-0.2-0.4-0.3-1.6 0.3-2.5c0.2-0.5 0.7-0.9 1.2-0.9q0.3 0 0.6 0.2c0.8 0.6 0.5 1.7 0.3 2.2 0 0.2-0.3 0.6-0.5 0.9-0.2 0.4-0.6 0.9-0.5 1.1 0 0.4 0.9 1 1.3 1.1q0.2 0.1 0.5 0.1c0.6 0 1.3-0.2 1.4-0.7 0-0.3-0.1-0.7-0.2-1.1-0.1-0.3-0.2-0.7-0.2-1 0-0.5 0.2-1 0.5-1.5 0.3-0.5 0.7-0.8 1.1-0.8q0.6 0 1.1 0.7c0.4 0.6 0.4 1.5-0.1 2.6l-0.7 1q-0.1 0.1-0.2 0.2c-0.2 0.3-0.2 0.3 0 0.7 0.1 0.4 0.5 0.8 0.6 1 0.2 0.1 0.3 0.3 0.4 0.3q0 0 0.2-0.1 0.1 0 0.2-0.1 0.3-0.2 0.5-0.3c0.5-0.4 0.9-0.7 1.6-0.7q0.2-0.1 0.3-0.1c1 0 1.4 0.6 1.5 1.1zm-4.9 0.9h-0.1q-0.3-0.3-0.5-0.6-0.5-0.5-0.8-1.2-0.7 0.6-1.7 0.6c-0.9 0-1.8-0.5-2.4-1.3-0.7 0.9-1.5 1.4-2.4 1.4q-0.4 0-0.9-0.2-0.1 0.9-0.4 1.5-0.1 0.2-0.2 0.3c-0.1 0.2-0.2 0.4-0.2 0.5 0 0.1 0.3 0.4 0.4 0.6q0.3 0.3 0.4 0.5 0.3 0.6 0.6 1.4c0.6 2 0.7 4.2 0.7 6 0.1 2.1 0 4.2 0 6.2q0 0.7 0 1.4-0.1 1.7-0.1 3.6 0 0.1 0 0.4 0 0.2 0 0.5 1.4 0.1 2.9 0.1c1.1-0.1 2.3-0.2 3.5-0.3-0.1-0.5-0.1-1.2-0.1-2q0-0.3-0.1-0.4c-0.1-2.3-0.1-4.8 0-7.9q0.1-0.8 0.1-1.7c0.1-1.8 0.2-3.7 0.4-5.6 0-0.7 0.1-1.2 0.3-1.7q0-0.3 0.2-0.7c0.1-0.4 0.5-1.2 0.4-1.4zm-9.5-3q0.1-0.1 0.1-0.2c0.1-0.8 0.3-2.1-0.1-2.7q-0.1-0.3-0.4-0.3-0.2 0-0.3 0.2c-0.2 0.3-0.1 0.8 0 1.2v0.1q0.3 1.1 0.7 1.7zm4.2-1.3c0.2-0.5 0.6-1.1 0.6-1.6 0-0.2-0.1-0.6-0.2-0.8q0 0-0.1 0c0 0-0.1 0-0.2 0.2-0.4 0.5-0.3 1.4-0.1 2.2zm4.4 0.8q1-1.3 0.9-2.1c-0.1-0.3-0.3-0.6-0.6-0.6-0.2 0-0.3 0.2-0.4 0.4q-0.3 0.7 0.1 2.3zm-10.2 4.6q-0.3-0.1-0.6-0.1-0.5 0-0.8 0.3 0.2 0.1 0.5 0.1c0.3 0 0.6-0.1 0.9-0.3zm15.1-1.9c0-0.1-0.2-0.2-0.5-0.2q-0.1 0-0.1 0c-0.7 0-1.4 0.4-1.9 0.9q0.5 0.1 1 0.1 0.6 0 1-0.2c0.4-0.2 0.5-0.4 0.5-0.6zm13.1 18.1c-1.2-0.6-2.2-1.4-3.1-2.2-1-0.8-2-1.6-2.7-2.6-0.2-0.3 0.2-0.8 0.5-0.6 1 0.8 1.8 1.7 2.8 2.4 0.9 0.8 2 1.5 2.9 2.4 0.4 0.3-0.1 0.8-0.4 0.6zm7.6-9.1c-1.4-0.6-2.7-1.4-4.1-2.1-1.3-0.6-2.8-1.1-3.9-2.1-0.3-0.3 0-0.8 0.4-0.7 1.4 0.2 2.8 1.2 4.1 1.8 1.3 0.7 2.7 1.4 3.9 2.3 0.5 0.4 0.1 1-0.4 0.8zm-7.1-19.8c1.1-0.4 2.3-0.7 3.4-1 1.2-0.4 2.5-0.8 3.7-1 0.5-0.1 0.7 0.6 0.2 0.8-1.1 0.4-2.3 0.7-3.5 1.1-1.1 0.3-2.3 0.7-3.5 0.9-0.4 0.1-0.8-0.6-0.3-0.8zm-6.1-11.4c-0.8 1.1-1.7 2.3-2.7 3.2-0.3 0.3-0.8-0.1-0.6-0.5 0.7-1 1.6-2 2.4-3q1.4-1.6 2.6-3.3c0.3-0.4 1 0 0.7 0.4q-1.1 1.6-2.4 3.2zm-17 0.8c-0.3-1.2-0.2-2.7-0.2-4q-0.1-2.1 0.1-4.2c0-0.5 0.7-0.6 0.7 0 0.1 1.3 0 2.7 0.1 4 0 1.4 0.2 2.8 0.1 4.1-0.1 0.4-0.7 0.6-0.8 0.1zm-15 5.2c0.2 0.4-0.3 0.8-0.6 0.4-1-0.9-1.8-2.1-2.6-3.2-0.8-1.1-1.8-2.2-2.5-3.5-0.2-0.4 0.3-0.8 0.7-0.5 0.9 1 1.7 2.2 2.5 3.3 0.8 1.1 1.8 2.2 2.5 3.5zm-9.9 10.8c-1.8-0.2-3.6-0.5-5.3-0.9-0.5-0.2-0.4-1 0.1-0.9 1.7 0.2 3.5 0.5 5.2 0.7q1.5 0.2 2.9 0.4c0.8 0.1 1.7 0.2 2.5 0.4 0.5 0.2 0.3 0.8-0.2 0.9-0.9 0.1-1.8-0.1-2.7-0.2q-1.3-0.2-2.5-0.4zm6.6 15.2c-1.1 0.8-2.4 1.4-3.5 2.1-1.1 0.6-2.2 1.6-3.4 2-0.4 0.1-0.6-0.4-0.4-0.7 0.4-0.5 1.1-0.8 1.6-1.2q0.9-0.5 1.8-1c1.1-0.7 2.3-1.5 3.6-1.9 0.5-0.2 0.7 0.5 0.3 0.7z"/></g><path fill-rule="evenodd" class="b" d="m27.3 42.9c-0.2-0.6-0.3-1.2-0.6-1.7-0.1-0.1-0.3-0.1-0.4 0-0.3 1.3 0.2 2.7 0.8 3.8 0.5 0.9 1.3 2.3 2.4 2.4 0.1 0 0.3-0.1 0.2-0.2 0-1-1.1-1.8-1.6-2.6-0.3-0.5-0.6-1.1-0.8-1.7zm3-16.3c-1.7 0.9-3 2.3-3.7 4.1-0.9 2-1.4 4.4-1.1 6.6 0.1 0.5 0.9 0.4 1 0 0.5-2 0.4-4 1.2-5.9 0.6-1.6 1.7-3 3.1-3.9 0.6-0.4 0.1-1.3-0.5-0.9z"/><path fill-rule="evenodd" d="m98.5 47.2q-1.5 6-4.5 9.4 1.9 2.7 2 2.9 0 0 0.3 0.5 0.4 0.4 0.5 0.7 0.5 0.9 0.4 1.8-0.2 0.9-0.9 1.5-0.8 0.6-1.7 0.5-1-0.1-1.6-0.9-0.5-0.5-2.4-3.2 0 0-0.6-1-1.7 0.5-1.8 0.5-6.9 1.1-11.3-4.2-3.1-3.9-3.5-9.7-0.4-6.8 2.6-12.8 1.7-3.6 4.4-5.8 4.6-3.6 11-1.9 1.1 0.3 2 1 0.9 0.6 1.4 1.2 0.6 0.6 1.4 1.6 4 5 3.3 12.2-0.3 2.6-1 5.7zm-8.3 2.2q0 0.2 1.3 2.3 0.6-1.2 0.7-1.3 2.5-6.1 2.4-11.6-0.1-3.5-1.9-5.8-0.4-0.5-1.2-1.3-0.7-0.8-1.1-1.3-0.5-0.7-1.4-0.7-3.8-0.2-6.2 2.2-1.7 1.8-2.7 4.2-2.2 4.9-1.7 10.3 0.4 3.5 2.3 6.1 2.2 2.7 6 2.6 0 0 1.1-0.2-1.3-2.9-1.6-3.4-0.6-1.3-0.6-1.6-0.3-0.8 0-1.6 0.3-0.7 1.1-1.1 0.8-0.3 1.5-0.1 0.7 0.2 1.2 0.9 0.1 0.3 0.8 1.4z"/><path  d="m102.4 48.5q0-0.7-0.8-8.6 0.8-8.2 1.1-10.6 0-0.5 0.2-1.1 0.4-0.8 1-1.2 0.7-0.5 1.5-0.3 0.8 0.1 1.3 0.7 0.5 0.6 0.5 1.5 0 0.6-0.2 1.9-0.1 1.2-0.2 1.8-0.2 3.5-0.1 7.8 0.1 4.3 0.7 7.7 0.3 1.7 1.5 4.6 0.4 1.1 1.2 1.9 1.7 1.4 3.8 1.2 2.1-0.3 3.4-2.1 1.4-1.9 2.3-5 1-3.8 1.4-8.5 0.1-2.2 0.3-8.3 0-0.5-0.2-2.3 0-0.5 0-1 0.2-0.6 0.4-0.9 0.3-0.4 0.7-0.7 0.4-0.2 0.9-0.3 0.7-0.2 1.2 0 0.6 0.3 1.1 0.8 0.4 0.5 0.5 1.3 0.3 0.9 0.3 1.7 0.3 11.1-1.8 19.4-1.1 4.1-3.1 6.8-3.8 5-10 3.9-4.4-0.8-6.7-5.3-1.6-3.1-2.2-6.8z"/><path  d="m134.2 27.2q0.1 2.1 0.5 10.3 0.1 6-0.6 15-0.3 2.8-0.1 4.3 0.3 1.6-1.1 3-0.9 1-2.3 0.7-1.3-0.4-1.7-1.6-0.2-0.9-0.1-2.1 1.1-12.9 0.9-23.2 0-1.8 0-6.1 0.1-0.8 0.2-1.4 0.5-1.4 2-1.5 1.5 0 2 1.4 0.3 0.6 0.3 1.2z"/><path  d="m143.7 54.1q-0.1 0.1-0.7 1.2 1.4 0 1.4-0.1 0.9 0 2.1 0 1.3 0 2.3 0 0.9-0.1 2.1-0.1 1.2 0 2.2 0 1 0 1.6 0 1 0.2 1.6 1 0.6 0.7 0.5 1.6-0.1 1-0.7 1.6-0.7 0.7-1.7 0.7-0.9 0.1-2.4 0.1-1.6 0-1.8 0-9.7 0.3-10.6 0.4-1.1 0-1.7-0.3-1-0.3-1.5-1.3-0.4-0.9 0-2 0.2-0.7 1.1-2.2 5.5-9.3 14.6-22.9 0-0.1 0.7-1.3-0.9 0-1 0-0.4 0-1.8-0.1-1.5 0-2.2 0-1-0.1-1.6-0.6-0.7-0.5-0.7-1.3-0.1-1 0.4-1.6 0.4-0.6 1.4-0.8 0.3-0.1 1.2-0.2 0.7 0 7.5-0.4 0 0 0.1 0 0.1 0 0.1 0 1.2 0 2 0.5 0.8 0.6 1.1 1.5 0.2 0.9-0.2 2-0.6 1.3-1.6 2.9-1 1.6-3.3 5-2.2 3.4-3.3 5.2-1.1 1.7-7.2 11.5z"/><path fill-rule="evenodd" d="m174.3 40.3q-0.1 0.1-0.8 1 3.9 1.4 6 4.9 2 3.3 1.6 6.7-0.5 3.9-4.3 6-4.5 2.5-10 2.4-1-0.1-3.4-1.1-1-0.4-1.1-1.8-0.1-0.8-0.2-2.2-0.8-15.3-0.9-17-0.1-1.9-0.2-11.7 0-0.6 0.1-1.2 0.2-0.6 0.6-0.9 0.4-0.4 0.8-0.6 0.5-0.2 1.1-0.1 1.2 0.2 1.9 0.1 3.8-0.1 6.7 2.1 3 2.2 3.8 5.8 1 4.3-1.7 7.6zm-3.4 5.4q-0.2 0-4.3-0.6 0.1 1.6 0.2 3.5 0.1 1.9 0.2 4.2 0.1 2.3 0.1 3.6 3.8-0.1 6.9-1.6 1.6-0.7 2-1.8 0.5-1.1 0-2.8-1.3-3.7-5.1-4.5zm-5.4-16.2q0.4 4.8 0.8 10.8 1-0.5 2.3-1.5 1.3-1 1.8-1.6 1.1-1.3 0.9-2.6-0.3-2.2-1.4-3.4-1.2-1.3-3.5-1.8 0 0-0.9 0.1z"/><path fill-rule="evenodd" d="m199.4 54.8q0-0.6 0-4.6-2.2-0.6-5.9-0.9-3.8-0.4-5.5-0.2-0.7 3.6-0.7 3.9-0.2 1.1-0.5 3.2-0.3 2.1-0.4 2.9-0.1 0.7-0.3 1-0.3 0.7-0.9 1-0.6 0.4-1.3 0.3-0.5-0.2-0.9-0.4-0.4-0.3-0.6-0.7-0.3-0.4-0.3-0.9-0.1-0.5 0-1.7 0.8-12.2 4.8-23.3 0.6-1.8 2.3-5.4 0.8-1.8 2.5-3.3 2.2-2 4.8-1.9 2.7 0.2 4.7 2.5 2 2.3 2.8 6 0.9 4.4 0.6 11.2 0 0.3-0.1 1.1 0 0.8 0 1.3 0 0.5 0 1.1 0.1 0.7 0.2 1.2 0.1 0.3 0 0.6-0.2 1.1-0.3 2.3-0.1 1.3-0.1 2.2 0 0.9 0 2.3 0.1 1.5 0.1 2.2 0 1-0.1 1.3-0.2 1-0.9 1.6-0.7 0.7-1.7 0.5-0.9 0-1.5-0.6-0.7-0.7-0.7-1.6-0.1-0.7-0.1-4.2zm-9.5-13.5q-0.1 0.2-0.8 3 10 0.6 10.5 0.6 0-1.1 0-1.1 0.1-5.2 0-6-0.1-2.6-0.7-5.2-0.2-1.3-1.2-2.8-1.3-2-2.9-0.2-0.9 1.1-1.7 2.7-1.5 3.1-3.2 9z"/><path  d="m224 58.8q-3.9 2.2-7.1 2-2.6 0.1-4.9-1-4.6-2.2-5.1-7.5-0.1-2 1.2-4.2 0.6-0.8 1.4-1.1 0.9-0.2 1.7 0.2 0.9 0.4 1.2 1.2 0.4 0.8 0.1 1.8 0 0.1-0.2 0.5-0.6 1.5 0 2.9 0.5 1.3 2.1 1.8 1.1 0.4 2.9 0.4 1.9 0.1 4.5-1.4 2.6-1.6 1.6-4.5-0.8-2.5-3.3-4.1-0.5-0.3-4.1-2.2-0.3-0.1-0.8-0.4-0.6-0.3-1-0.5-0.5-0.2-0.9-0.5-2.5-1.5-3.5-4-1-2.5-0.3-5.4 0.8-3.5 3.4-5.7 2.6-2.3 5.9-2.7 3.8-0.5 6.7 2.4 1 1 1.1 2.3 0 0.6-0.2 1.1-0.2 0.4-0.5 0.8-0.4 0.3-0.8 0.5-1.7 0.5-2.6-1-0.5-0.8-1.4-1.2-0.9-0.4-1.8-0.2-1.8 0.5-3.3 1.8-1.4 1.4-1.7 3.3-0.5 2.6 1.7 3.8 0.4 0.3 1.3 0.7 0.8 0.5 1.1 0.6 3.9 2.1 4.5 2.5 3.4 2.1 4.9 5.6 0.6 1.4 0.7 3 0.2 1.5-0.2 3.1-0.3 1.5-1.4 2.9-1.2 1.4-2.9 2.4z"/><path  d="m235.7 30.2q0.1 2.4 0.2 7.1 0.1 4.6 0.1 5.5 5.4-0.5 5.9-0.5 2.1-0.3 2.7 1.3 0.3 0.7 0 1.5-0.2 0.8-0.9 1.4-0.8 0.6-2.6 0.7-0.7 0-5.1 0.1-0.1 5.3 0.3 8.4 2.9 0.3 3.1 0.3 0.7 0 2.1 0.1 1.3 0 1.9 0 0.8 0.1 1.3 0.2 0.9 0.3 1.3 0.9 0.5 0.7 0.4 1.5 0 1.7-1.8 2.3-0.4 0.1-0.6 0-7.3-0.3-8.3-0.4-2-0.3-3-1.3-1-1.1-1.4-3.1-0.3-2.2-0.3-4.4 0-6.3 0-14.7 0-0.7 0.1-3.8 0.1-3 0-4.6-0.1-1.6 0.8-2.4 0.9-0.8 2.5-0.8 0.7 0 2.1 0.2 1.3 0.1 1.7 0.1 1 0.1 2.9 0.1 1.9 0.1 2.9 0.2 1.1 0 1.7 0.3 0.8 0.2 1.2 0.9 0.4 0.7 0.3 1.4 0 0.8-0.5 1.4-0.5 0.6-1.3 0.8-0.7 0.1-1.8 0-1 0-7.9-0.7z"/></svg>