<svg xmlns="http://www.w3.org/2000/svg" xmlns:xlink="http://www.w3.org/1999/xlink" width="500" zoomAndPan="magnify" viewBox="0 0 375 374.999991" height="500" preserveAspectRatio="xMidYMid meet" version="1.0"><defs><g/><clipPath id="d88e3e8d33"><path d="M 80 224 L 96 224 L 96 240.777344 L 80 240.777344 Z M 80 224 " clip-rule="nonzero"/></clipPath><clipPath id="33248ed622"><path d="M 56.628906 172.527344 L 118.019531 172.527344 L 118.019531 239.125 L 56.628906 239.125 Z M 56.628906 172.527344 " clip-rule="nonzero"/></clipPath></defs><path fill="#f6b737" d="M 105.390625 203.257812 C 104.414062 207.570312 102.207031 211.195312 99.316406 214.476562 C 97.847656 216.148438 96.316406 217.804688 95.261719 219.785156 C 94.707031 220.816406 94.304688 221.925781 94.054688 223.070312 C 93.804688 224.214844 93.863281 225.359375 93.695312 226.507812 C 93.40625 228.464844 91.558594 228.78125 89.890625 228.773438 C 87.53125 228.757812 85.164062 228.519531 82.847656 228.066406 C 82.648438 228.144531 82.375 228.082031 82.335938 227.835938 C 82.171875 226.726562 82.011719 225.613281 81.789062 224.511719 C 81.332031 222.242188 80.585938 220.050781 79.152344 218.210938 C 77.871094 216.5625 76.265625 215.203125 74.871094 213.65625 C 72.175781 210.683594 70.625 206.828125 70.296875 202.832031 C 69.996094 199.203125 70.726562 195.410156 72.628906 192.289062 C 74.660156 188.960938 77.941406 186.816406 81.617188 185.703125 C 85.667969 184.472656 90.308594 184.113281 94.496094 184.691406 C 98.519531 185.25 102.550781 187.191406 104.472656 190.960938 C 106.359375 194.664062 106.289062 199.289062 105.390625 203.257812 " fill-opacity="1" fill-rule="nonzero"/><path fill="#f59a3d" d="M 93.671875 216.492188 C 92.1875 215.960938 91.933594 213.835938 90.535156 215.398438 C 90.386719 215.5625 89.113281 222.238281 89.191406 222.542969 C 90.34375 226.945312 95.921875 217.292969 93.671875 216.492188 Z M 91.882812 189.054688 C 92.742188 188.5625 95.589844 188.945312 96.28125 187.9375 C 97.378906 186.332031 94.921875 185.714844 93.699219 185.570312 C 90.101562 185.148438 90.582031 189.800781 91.882812 189.054688 Z M 103.511719 195.921875 C 103.519531 201.398438 101.722656 208.09375 98.027344 212.273438 C 96.960938 213.480469 94.792969 215.546875 93.421875 213.648438 C 92.632812 212.554688 93.691406 207.308594 93.648438 206.050781 C 93.535156 202.738281 92.796875 199.582031 92.421875 196.308594 C 92.105469 193.582031 92.5 192.695312 95.027344 191.601562 C 99.765625 189.550781 103.503906 189.945312 103.511719 195.921875 " fill-opacity="1" fill-rule="nonzero"/><g clip-path="url(#d88e3e8d33)"><path fill="#f59a3d" d="M 95.480469 232.503906 C 95.4375 233.523438 94.84375 234.527344 93.859375 234.71875 C 94.210938 235.710938 93.65625 236.773438 92.804688 237.378906 C 92.828125 238.316406 92.589844 239.167969 91.773438 239.808594 C 90.839844 240.542969 89.574219 240.753906 88.414062 240.765625 C 86.769531 240.777344 83.238281 239.992188 83.390625 237.824219 C 82.828125 237.683594 82.273438 237.476562 81.859375 237.078125 C 81.429688 236.671875 81.222656 236.089844 81.464844 235.523438 C 81.625 235.148438 81.910156 234.894531 82.242188 234.707031 C 81.269531 234.257812 80.472656 233.480469 80.324219 232.339844 C 80.195312 231.363281 80.710938 230.414062 81.578125 230.03125 C 80.835938 229.144531 80.164062 228.136719 80.300781 226.925781 C 80.390625 226.136719 80.902344 225.457031 81.605469 225.199219 C 81.644531 225.128906 81.714844 225.082031 81.808594 225.09375 C 81.859375 225.097656 81.910156 225.105469 81.957031 225.109375 C 82.09375 225.089844 82.234375 225.082031 82.378906 225.09375 C 82.46875 225.101562 82.535156 225.132812 82.589844 225.183594 C 84.089844 225.351562 85.59375 225.460938 87.105469 225.449219 C 88.828125 225.433594 90.5 225.1875 92.207031 225 C 93.339844 224.875 94.617188 225.171875 94.953125 226.417969 C 95.246094 227.511719 94.9375 228.652344 94.320312 229.5625 C 95.128906 230.300781 95.53125 231.394531 95.480469 232.503906 " fill-opacity="1" fill-rule="nonzero"/></g><g clip-path="url(#33248ed622)"><path fill="#2e2e30" d="M 92.273438 237.625 C 91.101562 238.433594 89.804688 238.503906 88.421875 238.5 C 86.886719 238.5 85.476562 238.285156 84 237.894531 C 83.78125 237.835938 83.632812 238.160156 83.84375 238.269531 C 85.289062 239.019531 87.089844 239.027344 88.679688 239.039062 C 90.003906 239.050781 91.578125 239.03125 92.566406 238.007812 C 92.75 237.816406 92.507812 237.464844 92.273438 237.625 Z M 93.175781 234.480469 C 92.371094 234.59375 91.585938 234.898438 90.78125 235.046875 C 89.910156 235.210938 89.027344 235.300781 88.144531 235.328125 C 86.425781 235.378906 84.734375 235.144531 83.066406 234.742188 C 82.777344 234.671875 82.65625 235.105469 82.945312 235.195312 C 84.671875 235.71875 86.480469 235.933594 88.28125 235.898438 C 89.890625 235.867188 91.9375 235.75 93.390625 234.992188 C 93.695312 234.832031 93.460938 234.441406 93.175781 234.480469 Z M 88.160156 230.824219 C 89.824219 230.742188 91.855469 230.664062 93.386719 229.960938 C 93.597656 229.863281 93.496094 229.507812 93.269531 229.523438 C 92.464844 229.582031 91.667969 229.84375 90.867188 229.980469 C 89.925781 230.136719 88.972656 230.242188 88.019531 230.285156 C 86.226562 230.367188 84.5 230.121094 82.722656 230.003906 C 82.46875 229.988281 82.425781 230.378906 82.660156 230.441406 C 84.40625 230.914062 86.371094 230.910156 88.160156 230.824219 Z M 96.6875 202.589844 C 96.660156 202.441406 96.460938 202.339844 96.160156 202.3125 C 96.117188 202.308594 96.074219 202.304688 96.03125 202.304688 C 95.355469 202.304688 94.667969 202.753906 94.203125 203.222656 C 94.53125 203.335938 94.871094 203.394531 95.195312 203.394531 C 95.574219 203.394531 95.917969 203.316406 96.214844 203.15625 C 96.582031 202.964844 96.71875 202.734375 96.6875 202.589844 Z M 92.632812 203.371094 L 92.605469 203.363281 L 92.589844 203.347656 C 92.390625 203.179688 92.207031 202.992188 92.039062 202.789062 C 91.75 202.441406 91.5 202.039062 91.300781 201.589844 C 90.792969 201.9375 90.214844 202.121094 89.621094 202.121094 C 88.683594 202.121094 87.792969 201.664062 87.203125 200.882812 C 86.511719 201.761719 85.667969 202.242188 84.820312 202.242188 C 84.507812 202.242188 84.199219 202.175781 83.890625 202.050781 C 83.78125 202.652344 83.644531 203.140625 83.460938 203.570312 C 83.421875 203.660156 83.363281 203.765625 83.296875 203.878906 C 83.210938 204.027344 83.066406 204.28125 83.074219 204.367188 C 83.089844 204.492188 83.328125 204.773438 83.503906 204.976562 C 83.65625 205.15625 83.800781 205.328125 83.875 205.460938 C 84.085938 205.855469 84.269531 206.304688 84.4375 206.835938 C 85.066406 208.832031 85.171875 211 85.21875 212.875 C 85.273438 214.917969 85.222656 217 85.171875 219.011719 C 85.160156 219.480469 85.148438 219.949219 85.136719 220.421875 C 85.109375 221.59375 85.074219 222.8125 85.035156 224.042969 C 85.03125 224.113281 85.035156 224.242188 85.039062 224.402344 C 85.042969 224.582031 85.046875 224.765625 85.046875 224.941406 C 86.003906 224.992188 86.960938 225.03125 87.925781 225.007812 C 89.109375 224.980469 90.277344 224.871094 91.445312 224.742188 C 91.347656 224.210938 91.332031 223.5 91.328125 222.785156 C 91.328125 222.582031 91.328125 222.40625 91.320312 222.300781 C 91.183594 220.003906 91.183594 217.519531 91.316406 214.484375 C 91.34375 213.917969 91.363281 213.351562 91.386719 212.78125 C 91.457031 210.929688 91.527344 209.015625 91.738281 207.15625 C 91.816406 206.472656 91.910156 205.925781 92.035156 205.429688 C 92.074219 205.273438 92.164062 205.042969 92.261719 204.777344 C 92.40625 204.394531 92.746094 203.5 92.632812 203.371094 Z M 83.21875 200.371094 C 83.226562 200.308594 83.238281 200.246094 83.246094 200.179688 C 83.367188 199.339844 83.550781 198.074219 83.207031 197.476562 C 83.097656 197.285156 82.941406 197.171875 82.789062 197.171875 C 82.675781 197.171875 82.566406 197.230469 82.457031 197.351562 C 82.226562 197.609375 82.371094 198.183594 82.457031 198.527344 L 82.476562 198.601562 C 82.65625 199.339844 82.902344 199.921875 83.21875 200.371094 Z M 87.324219 199.011719 C 87.609375 198.535156 87.925781 197.96875 87.976562 197.445312 C 88 197.21875 87.917969 196.84375 87.777344 196.6875 C 87.742188 196.648438 87.710938 196.628906 87.679688 196.628906 C 87.648438 196.628906 87.566406 196.648438 87.4375 196.828125 C 87.027344 197.390625 87.128906 198.277344 87.324219 199.011719 Z M 91.738281 199.863281 C 92.429688 198.972656 92.738281 198.261719 92.652344 197.746094 C 92.601562 197.433594 92.324219 197.164062 92.0625 197.164062 C 91.851562 197.164062 91.738281 197.347656 91.683594 197.503906 C 91.496094 198.023438 91.515625 198.816406 91.738281 199.863281 Z M 81.550781 204.464844 C 81.375 204.40625 81.191406 204.375 81.007812 204.375 C 80.660156 204.375 80.355469 204.484375 80.128906 204.683594 C 80.285156 204.761719 80.453125 204.796875 80.625 204.796875 C 80.980469 204.796875 81.304688 204.636719 81.550781 204.464844 Z M 97.5625 202.449219 C 97.644531 203.121094 97.132812 203.980469 96.03125 204.25 C 95.792969 204.308594 95.53125 204.339844 95.253906 204.339844 C 95.082031 204.339844 94.898438 204.328125 94.714844 204.304688 C 94.601562 204.289062 94.414062 204.21875 94.199219 204.136719 C 93.988281 204.058594 93.695312 203.949219 93.59375 203.949219 C 93.355469 204.015625 93.023438 204.566406 92.78125 206.816406 L 92.765625 206.953125 C 92.164062 212.191406 92.003906 217.496094 92.292969 222.714844 C 92.296875 222.769531 92.3125 222.890625 92.328125 223.042969 C 92.394531 223.589844 92.453125 224.164062 92.457031 224.632812 C 92.660156 224.609375 92.863281 224.585938 93.070312 224.5625 C 93.390625 224.527344 93.460938 225.070312 93.144531 225.128906 C 91.4375 225.449219 89.660156 225.546875 87.925781 225.582031 C 86.203125 225.613281 84.40625 225.605469 82.707031 225.300781 C 82.4375 225.253906 82.507812 224.824219 82.769531 224.832031 C 83.1875 224.847656 83.605469 224.867188 84.023438 224.886719 C 84.027344 224.027344 84.082031 222.832031 84.1875 221.214844 C 84.214844 220.78125 84.238281 220.4375 84.242188 220.289062 C 84.277344 218.300781 84.308594 215.957031 84.277344 213.640625 C 84.25 211.671875 84.144531 209.570312 83.566406 207.5625 C 83.550781 207.496094 83.527344 207.417969 83.503906 207.324219 C 83.347656 206.738281 82.976562 205.367188 82.503906 205.164062 C 82.503906 205.164062 82.492188 205.160156 82.46875 205.160156 C 82.328125 205.160156 82.039062 205.28125 81.757812 205.398438 C 81.351562 205.570312 80.890625 205.761719 80.53125 205.761719 C 80.503906 205.761719 80.476562 205.757812 80.453125 205.757812 C 79.929688 205.714844 79.25 205.5 79.050781 205.027344 C 78.96875 204.832031 78.941406 204.515625 79.273438 204.109375 C 79.65625 203.640625 80.246094 203.382812 80.929688 203.382812 C 81 203.382812 81.074219 203.386719 81.144531 203.390625 C 81.304688 203.402344 81.492188 203.480469 81.675781 203.554688 C 81.851562 203.625 82.027344 203.695312 82.140625 203.695312 C 82.144531 203.695312 82.152344 203.695312 82.160156 203.695312 C 82.382812 203.671875 82.511719 203.34375 82.632812 203.03125 L 82.707031 202.847656 C 82.828125 202.550781 82.988281 202.148438 82.988281 201.863281 C 82.988281 201.484375 82.914062 201.394531 82.726562 201.171875 C 82.65625 201.089844 82.578125 200.992188 82.484375 200.863281 C 81.960938 200.128906 81.148438 198.265625 81.558594 197.101562 C 81.71875 196.644531 82.042969 196.347656 82.519531 196.214844 C 82.667969 196.175781 82.804688 196.152344 82.9375 196.152344 C 83.242188 196.152344 83.503906 196.265625 83.710938 196.488281 C 84.3125 197.136719 84.285156 198.546875 84.246094 199.121094 C 84.234375 199.257812 84.191406 199.492188 84.140625 199.761719 C 84.066406 200.15625 83.914062 200.980469 83.996094 201.113281 C 84.144531 201.324219 84.425781 201.367188 84.636719 201.367188 C 85.050781 201.367188 85.546875 201.195312 85.789062 201.035156 C 86.082031 200.835938 86.429688 200.515625 86.546875 200.253906 C 86.675781 199.957031 86.617188 199.757812 86.527344 199.460938 C 86.492188 199.335938 86.449219 199.199219 86.417969 199.035156 C 86.210938 197.964844 86.277344 197.121094 86.621094 196.527344 C 86.871094 196.09375 87.359375 195.660156 87.882812 195.660156 C 88.089844 195.660156 88.28125 195.726562 88.460938 195.851562 C 89.230469 196.402344 88.949219 197.585938 88.796875 198.070312 C 88.726562 198.289062 88.515625 198.613281 88.296875 198.953125 C 88.046875 199.34375 87.707031 199.875 87.722656 200.074219 C 87.761719 200.484375 88.636719 201.027344 89.078125 201.152344 C 89.21875 201.191406 89.402344 201.214844 89.597656 201.214844 C 90.195312 201.214844 90.875 201.011719 90.957031 200.566406 C 91.007812 200.273438 90.898438 199.867188 90.796875 199.472656 C 90.707031 199.132812 90.613281 198.78125 90.613281 198.476562 C 90.613281 197.984375 90.773438 197.417969 91.046875 196.960938 C 91.359375 196.4375 91.757812 196.148438 92.175781 196.148438 C 92.554688 196.148438 92.914062 196.378906 93.246094 196.835938 C 93.714844 197.484375 93.6875 198.375 93.160156 199.414062 L 92.5 200.425781 C 92.429688 200.511719 92.367188 200.585938 92.3125 200.644531 C 92.085938 200.910156 92.074219 200.921875 92.238281 201.371094 C 92.390625 201.785156 92.730469 202.179688 92.917969 202.382812 C 93.027344 202.496094 93.207031 202.6875 93.269531 202.6875 C 93.296875 202.6875 93.363281 202.640625 93.4375 202.589844 C 93.5 202.546875 93.570312 202.5 93.660156 202.445312 C 93.839844 202.335938 94.003906 202.222656 94.164062 202.113281 C 94.628906 201.796875 95.066406 201.496094 95.734375 201.410156 C 95.859375 201.394531 95.988281 201.382812 96.105469 201.382812 C 97.085938 201.382812 97.5 201.933594 97.5625 202.449219 Z M 110.21875 220.007812 C 109.246094 219.199219 108.195312 218.496094 107.226562 217.683594 C 106.300781 216.902344 105.460938 216 104.488281 215.28125 C 104.179688 215.050781 103.742188 215.5 103.957031 215.8125 C 104.671875 216.835938 105.683594 217.667969 106.640625 218.457031 C 107.609375 219.253906 108.621094 220.0625 109.738281 220.636719 C 110.117188 220.828125 110.585938 220.3125 110.21875 220.007812 Z M 117.8125 210.792969 C 116.578125 209.886719 115.183594 209.191406 113.835938 208.484375 C 112.597656 207.832031 111.191406 206.875 109.796875 206.652344 C 109.421875 206.59375 109.027344 207.058594 109.382812 207.371094 C 110.449219 208.3125 112 208.824219 113.261719 209.46875 C 114.625 210.167969 115.953125 210.964844 117.359375 211.566406 C 117.886719 211.792969 118.28125 211.136719 117.8125 210.792969 Z M 110.605469 192.550781 C 111.792969 192.359375 112.957031 191.941406 114.113281 191.605469 C 115.265625 191.265625 116.46875 190.984375 117.582031 190.53125 C 118.078125 190.332031 117.898438 189.625 117.359375 189.722656 C 116.128906 189.945312 114.914062 190.367188 113.714844 190.710938 C 112.570312 191.042969 111.386719 191.320312 110.285156 191.789062 C 109.820312 191.984375 110.183594 192.617188 110.605469 192.550781 Z M 106.589844 177.160156 C 106.890625 176.742188 106.210938 176.359375 105.910156 176.757812 C 105.066406 177.882812 104.199219 178.992188 103.3125 180.085938 C 102.511719 181.078125 101.601562 182.023438 100.890625 183.082031 C 100.632812 183.46875 101.191406 183.851562 101.507812 183.558594 C 102.515625 182.632812 103.355469 181.445312 104.199219 180.363281 C 105.015625 179.3125 105.8125 178.242188 106.589844 177.160156 Z M 87.925781 181.074219 C 88.09375 179.753906 87.875 178.320312 87.847656 176.992188 C 87.816406 175.628906 87.832031 174.265625 87.820312 172.902344 C 87.816406 172.398438 87.082031 172.40625 87.042969 172.902344 C 86.941406 174.3125 86.921875 175.726562 86.929688 177.136719 C 86.933594 178.441406 86.832031 179.90625 87.148438 181.179688 C 87.261719 181.652344 87.875 181.488281 87.925781 181.074219 Z M 69.652344 182.832031 C 68.832031 181.753906 68.054688 180.574219 67.125 179.582031 C 66.808594 179.246094 66.25 179.679688 66.484375 180.082031 C 67.207031 181.300781 68.164062 182.417969 69.011719 183.550781 C 69.816406 184.625 70.578125 185.855469 71.546875 186.792969 C 71.875 187.113281 72.386719 186.707031 72.171875 186.308594 C 71.511719 185.070312 70.496094 183.949219 69.652344 182.832031 Z M 64.753906 197.515625 C 65.65625 197.632812 66.605469 197.820312 67.519531 197.738281 C 68.011719 197.691406 68.140625 197.011719 67.636719 196.855469 C 66.855469 196.605469 66 196.566406 65.1875 196.464844 C 64.21875 196.34375 63.25 196.214844 62.28125 196.078125 C 60.546875 195.835938 58.816406 195.507812 57.074219 195.316406 C 56.554688 195.257812 56.457031 196.09375 56.949219 196.21875 C 58.695312 196.664062 60.503906 196.914062 62.28125 197.175781 C 63.105469 197.300781 63.925781 197.414062 64.753906 197.515625 Z M 68.890625 212.363281 C 67.761719 213.136719 66.507812 213.726562 65.332031 214.425781 C 64.238281 215.070312 63.136719 216.019531 61.953125 216.453125 C 61.554688 216.597656 61.332031 216.0625 61.570312 215.792969 C 62.011719 215.289062 62.644531 214.949219 63.203125 214.589844 C 63.78125 214.21875 64.363281 213.855469 64.953125 213.507812 C 66.117188 212.816406 67.304688 212.085938 68.585938 211.640625 C 69.035156 211.484375 69.234375 212.125 68.890625 212.363281 " fill-opacity="1" fill-rule="nonzero"/></g><path fill="#f59a3d" d="M 75.554688 207.664062 C 75.347656 207.078125 75.273438 206.472656 74.9375 205.941406 C 74.859375 205.8125 74.660156 205.835938 74.617188 205.984375 C 74.246094 207.203125 74.78125 208.679688 75.390625 209.746094 C 75.890625 210.617188 76.683594 212.042969 77.769531 212.167969 C 77.902344 212.183594 78.023438 212.039062 78.023438 211.914062 C 77.996094 210.929688 76.902344 210.105469 76.402344 209.332031 C 76.0625 208.808594 75.761719 208.253906 75.554688 207.664062 Z M 79.089844 192.207031 C 77.621094 193.113281 76.578125 194.570312 75.941406 196.15625 C 75.179688 198.058594 75.242188 200.046875 74.78125 202.003906 C 74.671875 202.460938 73.898438 202.5 73.820312 202.003906 C 73.476562 199.875 73.988281 197.40625 74.839844 195.449219 C 75.605469 193.679688 76.863281 192.214844 78.5625 191.304688 C 79.15625 190.984375 79.664062 191.855469 79.089844 192.207031 " fill-opacity="1" fill-rule="nonzero"/><g fill="#000000" fill-opacity="1"><g transform="translate(121.667423, 224.436697)"><g><path d="M 25.859375 -13.203125 C 24.867188 -9.222656 23.375 -6.097656 21.375 -3.828125 C 22.625 -2.023438 23.285156 -1.070312 23.359375 -0.96875 C 23.390625 -0.9375 23.515625 -0.765625 23.734375 -0.453125 C 23.960938 -0.148438 24.125 0.0820312 24.21875 0.25 C 24.5625 0.863281 24.679688 1.476562 24.578125 2.09375 C 24.472656 2.707031 24.164062 3.195312 23.65625 3.5625 C 23.15625 3.976562 22.585938 4.140625 21.953125 4.046875 C 21.328125 3.960938 20.789062 3.664062 20.34375 3.15625 C 20.070312 2.851562 19.289062 1.800781 18 0 C 17.96875 -0.03125 17.75 -0.367188 17.34375 -1.015625 C 16.25 -0.710938 15.671875 -0.546875 15.609375 -0.515625 C 11.015625 0.171875 7.253906 -1.238281 4.328125 -4.75 C 2.222656 -7.332031 1.050781 -10.5625 0.8125 -14.4375 C 0.539062 -18.957031 1.390625 -23.238281 3.359375 -27.28125 C 4.515625 -29.664062 5.992188 -31.570312 7.796875 -33 C 10.859375 -35.414062 14.53125 -36.0625 18.8125 -34.9375 C 19.5 -34.769531 20.144531 -34.453125 20.75 -33.984375 C 21.363281 -33.523438 21.847656 -33.109375 22.203125 -32.734375 C 22.566406 -32.367188 23.035156 -31.828125 23.609375 -31.109375 C 26.296875 -27.804688 27.382812 -23.742188 26.875 -18.921875 C 26.707031 -17.179688 26.367188 -15.273438 25.859375 -13.203125 Z M 17.59375 -11.015625 C 17.625 -10.910156 18.050781 -10.144531 18.875 -8.71875 C 19.3125 -9.53125 19.546875 -9.957031 19.578125 -10 C 21.285156 -14.070312 22.101562 -17.960938 22.03125 -21.671875 C 21.96875 -23.984375 21.320312 -25.921875 20.09375 -27.484375 C 19.851562 -27.796875 19.46875 -28.222656 18.9375 -28.765625 C 18.414062 -29.304688 18.035156 -29.734375 17.796875 -30.046875 C 17.453125 -30.484375 16.992188 -30.71875 16.421875 -30.75 C 13.867188 -30.882812 11.796875 -30.140625 10.203125 -28.515625 C 9.046875 -27.316406 8.128906 -25.9375 7.453125 -24.375 C 6.015625 -21.082031 5.46875 -17.632812 5.8125 -14.03125 C 6.050781 -11.675781 6.816406 -9.648438 8.109375 -7.953125 C 9.535156 -6.117188 11.523438 -5.234375 14.078125 -5.296875 C 14.109375 -5.296875 14.484375 -5.382812 15.203125 -5.5625 C 14.316406 -7.46875 13.785156 -8.601562 13.609375 -8.96875 C 13.203125 -9.820312 12.984375 -10.332031 12.953125 -10.5 C 12.785156 -11.082031 12.800781 -11.617188 13 -12.109375 C 13.207031 -12.609375 13.566406 -12.972656 14.078125 -13.203125 C 14.585938 -13.441406 15.085938 -13.484375 15.578125 -13.328125 C 16.066406 -13.179688 16.484375 -12.867188 16.828125 -12.390625 C 16.898438 -12.253906 17.15625 -11.796875 17.59375 -11.015625 Z M 17.59375 -11.015625 "/></g></g></g><g fill="#000000" fill-opacity="1"><g transform="translate(149.610891, 224.436697)"><g><path d="M 1.890625 -11.984375 C 1.859375 -12.421875 1.585938 -15.257812 1.078125 -20.5 C 1.617188 -26.007812 1.972656 -29.546875 2.140625 -31.109375 C 2.171875 -31.453125 2.253906 -31.828125 2.390625 -32.234375 C 2.597656 -32.773438 2.921875 -33.191406 3.359375 -33.484375 C 3.804688 -33.773438 4.285156 -33.867188 4.796875 -33.765625 C 5.367188 -33.660156 5.828125 -33.410156 6.171875 -33.015625 C 6.515625 -32.628906 6.664062 -32.144531 6.625 -31.5625 C 6.625 -31.15625 6.570312 -30.523438 6.46875 -29.671875 C 6.375 -28.828125 6.304688 -28.203125 6.265625 -27.796875 C 6.128906 -25.484375 6.09375 -22.898438 6.15625 -20.046875 C 6.226562 -17.191406 6.472656 -14.625 6.890625 -12.34375 C 7.085938 -11.21875 7.5625 -9.671875 8.3125 -7.703125 C 8.582031 -7.023438 9.007812 -6.410156 9.59375 -5.859375 C 10.675781 -4.878906 11.921875 -4.472656 13.328125 -4.640625 C 14.742188 -4.804688 15.894531 -5.488281 16.78125 -6.6875 C 17.695312 -8.007812 18.441406 -9.707031 19.015625 -11.78125 C 19.703125 -14.300781 20.164062 -17.125 20.40625 -20.25 C 20.5 -21.675781 20.597656 -24.445312 20.703125 -28.5625 C 20.703125 -28.894531 20.648438 -29.660156 20.546875 -30.859375 C 20.515625 -31.191406 20.53125 -31.53125 20.59375 -31.875 C 20.664062 -32.21875 20.796875 -32.515625 20.984375 -32.765625 C 21.171875 -33.023438 21.390625 -33.238281 21.640625 -33.40625 C 21.898438 -33.570312 22.203125 -33.691406 22.546875 -33.765625 C 22.984375 -33.867188 23.394531 -33.84375 23.78125 -33.6875 C 24.175781 -33.53125 24.519531 -33.273438 24.8125 -32.921875 C 25.101562 -32.566406 25.296875 -32.148438 25.390625 -31.671875 C 25.566406 -31.054688 25.65625 -30.460938 25.65625 -29.890625 C 25.820312 -22.503906 25.207031 -16.039062 23.8125 -10.5 C 23.101562 -7.78125 22.066406 -5.519531 20.703125 -3.71875 C 18.191406 -0.382812 14.878906 0.90625 10.765625 0.15625 C 7.804688 -0.351562 5.5625 -2.101562 4.03125 -5.09375 C 2.976562 -7.207031 2.265625 -9.503906 1.890625 -11.984375 Z M 1.890625 -11.984375 "/></g></g></g><g fill="#000000" fill-opacity="1"><g transform="translate(176.38154, 224.436697)"><g><path d="M 6.828125 -33.25 C 6.929688 -31.820312 7.101562 -28.375 7.34375 -22.90625 C 7.445312 -18.957031 7.242188 -13.957031 6.734375 -7.90625 C 6.566406 -6.03125 6.550781 -4.617188 6.6875 -3.671875 C 6.851562 -2.585938 6.476562 -1.566406 5.5625 -0.609375 C 4.945312 0.0351562 4.195312 0.242188 3.3125 0.015625 C 2.425781 -0.203125 1.863281 -0.734375 1.625 -1.578125 C 1.425781 -2.160156 1.378906 -2.859375 1.484375 -3.671875 C 2.222656 -12.242188 2.523438 -19.976562 2.390625 -26.875 C 2.359375 -28.0625 2.359375 -30.085938 2.390625 -32.953125 C 2.429688 -33.492188 2.5 -33.953125 2.59375 -34.328125 C 2.90625 -35.273438 3.570312 -35.765625 4.59375 -35.796875 C 5.613281 -35.796875 6.289062 -35.335938 6.625 -34.421875 C 6.757812 -34.046875 6.828125 -33.65625 6.828125 -33.25 Z M 6.828125 -33.25 "/></g></g></g><g fill="#000000" fill-opacity="1"><g transform="translate(185.458069, 224.436697)"><g><path d="M 7.28125 -6.328125 C 7.25 -6.285156 7.03125 -5.894531 6.625 -5.15625 C 7.507812 -5.15625 7.96875 -5.171875 8 -5.203125 C 8.582031 -5.203125 9.296875 -5.207031 10.140625 -5.21875 C 10.992188 -5.238281 11.734375 -5.253906 12.359375 -5.265625 C 12.992188 -5.285156 13.707031 -5.296875 14.5 -5.296875 C 15.300781 -5.296875 16.023438 -5.316406 16.671875 -5.359375 C 17.390625 -5.359375 17.914062 -5.335938 18.25 -5.296875 C 18.9375 -5.160156 19.484375 -4.851562 19.890625 -4.375 C 20.296875 -3.90625 20.472656 -3.351562 20.421875 -2.71875 C 20.367188 -2.09375 20.117188 -1.554688 19.671875 -1.109375 C 19.234375 -0.671875 18.675781 -0.4375 18 -0.40625 C 17.414062 -0.375 16.601562 -0.347656 15.5625 -0.328125 C 14.53125 -0.316406 13.945312 -0.3125 13.8125 -0.3125 C 7.351562 -0.101562 3.816406 0.015625 3.203125 0.046875 C 2.492188 0.046875 1.914062 -0.0351562 1.46875 -0.203125 C 0.789062 -0.441406 0.304688 -0.875 0.015625 -1.5 C -0.265625 -2.132812 -0.269531 -2.804688 0 -3.515625 C 0.164062 -3.992188 0.539062 -4.726562 1.125 -5.71875 C 4.789062 -11.9375 9.632812 -19.582031 15.65625 -28.65625 C 15.6875 -28.695312 15.941406 -29.109375 16.421875 -29.890625 C 15.773438 -29.953125 15.429688 -29.984375 15.390625 -29.984375 C 15.160156 -29.984375 14.5625 -29.992188 13.59375 -30.015625 C 12.625 -30.035156 11.882812 -30.046875 11.375 -30.046875 C 10.726562 -30.078125 10.191406 -30.269531 9.765625 -30.625 C 9.335938 -30.976562 9.109375 -31.429688 9.078125 -31.984375 C 9.003906 -32.585938 9.128906 -33.101562 9.453125 -33.53125 C 9.773438 -33.957031 10.257812 -34.238281 10.90625 -34.375 C 11.113281 -34.4375 11.503906 -34.488281 12.078125 -34.53125 C 12.585938 -34.53125 15.085938 -34.648438 19.578125 -34.890625 C 19.609375 -34.890625 19.648438 -34.890625 19.703125 -34.890625 C 19.753906 -34.890625 19.796875 -34.890625 19.828125 -34.890625 C 20.617188 -34.921875 21.285156 -34.753906 21.828125 -34.390625 C 22.367188 -34.035156 22.710938 -33.5625 22.859375 -32.96875 C 23.015625 -32.375 22.957031 -31.703125 22.6875 -30.953125 C 22.3125 -30.066406 21.785156 -29.097656 21.109375 -28.046875 C 20.429688 -26.992188 19.34375 -25.328125 17.84375 -23.046875 C 16.351562 -20.773438 15.234375 -19.039062 14.484375 -17.84375 C 13.765625 -16.726562 11.363281 -12.890625 7.28125 -6.328125 Z M 7.28125 -6.328125 "/></g></g></g><g fill="#000000" fill-opacity="1"><g transform="translate(208.455333, 224.436697)"><g><path d="M 14.890625 -20.09375 C 14.859375 -20.0625 14.585938 -19.738281 14.078125 -19.125 C 16.691406 -18.207031 18.710938 -16.578125 20.140625 -14.234375 C 21.472656 -12.015625 22 -9.769531 21.71875 -7.5 C 21.382812 -4.945312 19.957031 -2.957031 17.4375 -1.53125 C 14.414062 0.164062 11.066406 0.960938 7.390625 0.859375 C 6.742188 0.828125 5.625 0.472656 4.03125 -0.203125 C 3.351562 -0.472656 2.976562 -1.085938 2.90625 -2.046875 C 2.84375 -2.585938 2.789062 -3.332031 2.75 -4.28125 C 2.175781 -14.445312 1.875 -20.109375 1.84375 -21.265625 C 1.769531 -22.523438 1.679688 -26.421875 1.578125 -32.953125 C 1.578125 -33.316406 1.628906 -33.707031 1.734375 -34.125 C 1.835938 -34.5 2.015625 -34.8125 2.265625 -35.0625 C 2.523438 -35.3125 2.816406 -35.492188 3.140625 -35.609375 C 3.460938 -35.734375 3.828125 -35.765625 4.234375 -35.703125 C 5.015625 -35.597656 5.625 -35.5625 6.0625 -35.59375 C 8.644531 -35.664062 10.90625 -34.976562 12.84375 -33.53125 C 14.789062 -32.082031 16.050781 -30.132812 16.625 -27.6875 C 17.269531 -24.863281 16.691406 -22.332031 14.890625 -20.09375 Z M 11.46875 -14.6875 C 11.332031 -14.71875 9.90625 -14.9375 7.1875 -15.34375 C 7.257812 -14.257812 7.328125 -13.085938 7.390625 -11.828125 C 7.460938 -10.566406 7.53125 -9.171875 7.59375 -7.640625 C 7.664062 -6.117188 7.71875 -4.929688 7.75 -4.078125 C 10.269531 -4.109375 12.550781 -4.617188 14.59375 -5.609375 C 15.644531 -6.117188 16.320312 -6.738281 16.625 -7.46875 C 16.925781 -8.195312 16.910156 -9.109375 16.578125 -10.203125 C 15.753906 -12.710938 14.050781 -14.207031 11.46875 -14.6875 Z M 6.125 -30.953125 C 6.363281 -27.722656 6.617188 -24.101562 6.890625 -20.09375 C 7.535156 -20.4375 8.296875 -20.9375 9.171875 -21.59375 C 10.054688 -22.257812 10.671875 -22.796875 11.015625 -23.203125 C 11.734375 -24.085938 12.023438 -24.972656 11.890625 -25.859375 C 11.679688 -27.316406 11.203125 -28.453125 10.453125 -29.265625 C 9.703125 -30.085938 8.546875 -30.671875 6.984375 -31.015625 C 6.984375 -31.015625 6.695312 -30.992188 6.125 -30.953125 Z M 6.125 -30.953125 "/></g></g></g><g fill="#000000" fill-opacity="1"><g transform="translate(230.585742, 224.436697)"><g><path d="M 17.90625 -5.65625 C 17.90625 -6.03125 17.90625 -7.5625 17.90625 -10.25 C 16.4375 -10.625 14.441406 -10.929688 11.921875 -11.171875 C 9.410156 -11.410156 7.597656 -11.460938 6.484375 -11.328125 C 6.035156 -8.910156 5.8125 -7.617188 5.8125 -7.453125 C 5.675781 -6.703125 5.503906 -5.628906 5.296875 -4.234375 C 5.097656 -2.835938 4.960938 -1.867188 4.890625 -1.328125 C 4.828125 -0.878906 4.726562 -0.539062 4.59375 -0.3125 C 4.382812 0.132812 4.078125 0.46875 3.671875 0.6875 C 3.265625 0.90625 2.820312 0.984375 2.34375 0.921875 C 2.039062 0.847656 1.753906 0.726562 1.484375 0.5625 C 1.210938 0.394531 1 0.175781 0.84375 -0.09375 C 0.6875 -0.375 0.59375 -0.679688 0.5625 -1.015625 C 0.488281 -1.390625 0.488281 -1.953125 0.5625 -2.703125 C 1.101562 -10.828125 2.703125 -18.613281 5.359375 -26.0625 C 5.765625 -27.21875 6.53125 -29.003906 7.65625 -31.421875 C 8.226562 -32.640625 9.0625 -33.742188 10.15625 -34.734375 C 11.644531 -36.085938 13.265625 -36.710938 15.015625 -36.609375 C 16.765625 -36.515625 18.304688 -35.703125 19.640625 -34.171875 C 20.992188 -32.640625 21.925781 -30.613281 22.4375 -28.09375 C 23.050781 -25.207031 23.273438 -21.488281 23.109375 -16.9375 C 23.066406 -16.726562 23.03125 -16.351562 23 -15.8125 C 22.96875 -15.269531 22.953125 -14.84375 22.953125 -14.53125 C 22.953125 -14.226562 22.96875 -13.851562 23 -13.40625 C 23.03125 -12.96875 23.097656 -12.578125 23.203125 -12.234375 C 23.234375 -12.035156 23.234375 -11.832031 23.203125 -11.625 C 23.066406 -10.914062 22.960938 -10.144531 22.890625 -9.3125 C 22.828125 -8.476562 22.796875 -7.757812 22.796875 -7.15625 C 22.796875 -6.5625 22.800781 -5.78125 22.8125 -4.8125 C 22.832031 -3.84375 22.84375 -3.101562 22.84375 -2.59375 C 22.84375 -1.988281 22.8125 -1.566406 22.75 -1.328125 C 22.644531 -0.648438 22.351562 -0.109375 21.875 0.296875 C 21.40625 0.710938 20.847656 0.882812 20.203125 0.8125 C 19.585938 0.78125 19.066406 0.550781 18.640625 0.125 C 18.210938 -0.300781 17.984375 -0.835938 17.953125 -1.484375 C 17.921875 -1.921875 17.90625 -3.3125 17.90625 -5.65625 Z M 8.359375 -19.171875 C 8.328125 -19.035156 8.070312 -18.015625 7.59375 -16.109375 C 14.257812 -15.742188 17.742188 -15.539062 18.046875 -15.5 C 18.085938 -16.25 18.109375 -16.640625 18.109375 -16.671875 C 18.140625 -20.140625 18.140625 -22.128906 18.109375 -22.640625 C 18.003906 -24.378906 17.765625 -26.097656 17.390625 -27.796875 C 17.222656 -28.679688 16.816406 -29.613281 16.171875 -30.59375 C 15.285156 -31.925781 14.316406 -31.992188 13.265625 -30.796875 C 12.648438 -30.085938 12.070312 -29.1875 11.53125 -28.09375 C 10.539062 -26.0625 9.484375 -23.085938 8.359375 -19.171875 Z M 8.359375 -19.171875 "/></g></g></g><g fill="#000000" fill-opacity="1"><g transform="translate(255.418714, 224.436697)"><g><path d="M 17.640625 -1.625 C 15.023438 -0.195312 12.644531 0.460938 10.5 0.359375 C 8.769531 0.421875 7.15625 0.0976562 5.65625 -0.609375 C 2.5625 -2.109375 0.863281 -4.609375 0.5625 -8.109375 C 0.457031 -9.472656 0.847656 -10.867188 1.734375 -12.296875 C 2.109375 -12.835938 2.582031 -13.203125 3.15625 -13.390625 C 3.738281 -13.578125 4.300781 -13.535156 4.84375 -13.265625 C 5.425781 -12.992188 5.832031 -12.582031 6.0625 -12.03125 C 6.300781 -11.488281 6.335938 -10.894531 6.171875 -10.25 C 6.140625 -10.144531 6.070312 -9.957031 5.96875 -9.6875 C 5.5625 -8.707031 5.546875 -7.765625 5.921875 -6.859375 C 6.296875 -5.960938 6.988281 -5.34375 8 -5 C 8.789062 -4.726562 9.757812 -4.59375 10.90625 -4.59375 C 12.207031 -4.550781 13.707031 -5.039062 15.40625 -6.0625 C 17.132812 -7.125 17.675781 -8.625 17.03125 -10.5625 C 16.519531 -12.1875 15.414062 -13.546875 13.71875 -14.640625 C 13.414062 -14.804688 12.054688 -15.535156 9.640625 -16.828125 C 9.429688 -16.929688 9.148438 -17.066406 8.796875 -17.234375 C 8.441406 -17.410156 8.109375 -17.570312 7.796875 -17.71875 C 7.492188 -17.875 7.222656 -18.035156 6.984375 -18.203125 C 5.285156 -19.222656 4.101562 -20.554688 3.4375 -22.203125 C 2.78125 -23.859375 2.671875 -25.671875 3.109375 -27.640625 C 3.648438 -29.984375 4.796875 -31.894531 6.546875 -33.375 C 8.304688 -34.851562 10.269531 -35.726562 12.4375 -36 C 14.988281 -36.34375 17.234375 -35.5625 19.171875 -33.65625 C 19.816406 -33.007812 20.160156 -32.226562 20.203125 -31.3125 C 20.234375 -30.9375 20.1875 -30.59375 20.0625 -30.28125 C 19.945312 -29.976562 19.769531 -29.707031 19.53125 -29.46875 C 19.289062 -29.238281 19.019531 -29.070312 18.71875 -28.96875 C 17.625 -28.625 16.753906 -28.960938 16.109375 -29.984375 C 15.804688 -30.492188 15.347656 -30.882812 14.734375 -31.15625 C 14.128906 -31.425781 13.519531 -31.476562 12.90625 -31.3125 C 11.75 -31.007812 10.675781 -30.40625 9.6875 -29.5 C 8.707031 -28.601562 8.113281 -27.507812 7.90625 -26.21875 C 7.601562 -24.507812 8.164062 -23.234375 9.59375 -22.390625 C 9.894531 -22.222656 10.332031 -21.992188 10.90625 -21.703125 C 11.488281 -21.410156 11.863281 -21.234375 12.03125 -21.171875 C 14.613281 -19.773438 16.113281 -18.941406 16.53125 -18.671875 C 18.800781 -17.242188 20.429688 -15.351562 21.421875 -13 C 21.828125 -12.082031 22.082031 -11.101562 22.1875 -10.0625 C 22.289062 -9.03125 22.222656 -8.003906 21.984375 -6.984375 C 21.742188 -5.960938 21.25 -4.972656 20.5 -4.015625 C 19.75 -3.066406 18.796875 -2.269531 17.640625 -1.625 Z M 17.640625 -1.625 "/></g></g></g><g fill="#000000" fill-opacity="1"><g transform="translate(278.212012, 224.436697)"><g><path d="M 6.578125 -30.25 C 6.609375 -28.613281 6.65625 -26.25 6.71875 -23.15625 C 6.789062 -20.0625 6.828125 -18.207031 6.828125 -17.59375 C 10.429688 -17.9375 12.40625 -18.125 12.75 -18.15625 C 14.113281 -18.320312 15 -17.894531 15.40625 -16.875 C 15.601562 -16.363281 15.625 -15.84375 15.46875 -15.3125 C 15.320312 -14.789062 15.03125 -14.34375 14.59375 -13.96875 C 14.007812 -13.53125 13.140625 -13.296875 11.984375 -13.265625 C 11.503906 -13.265625 9.785156 -13.226562 6.828125 -13.15625 C 6.765625 -9.625 6.867188 -6.800781 7.140625 -4.6875 C 9.078125 -4.519531 10.097656 -4.4375 10.203125 -4.4375 C 10.710938 -4.4375 11.414062 -4.414062 12.3125 -4.375 C 13.21875 -4.34375 13.875 -4.328125 14.28125 -4.328125 C 14.789062 -4.296875 15.21875 -4.226562 15.5625 -4.125 C 16.132812 -3.957031 16.570312 -3.648438 16.875 -3.203125 C 17.1875 -2.765625 17.320312 -2.273438 17.28125 -1.734375 C 17.25 -0.578125 16.640625 0.171875 15.453125 0.515625 C 15.179688 0.609375 14.960938 0.640625 14.796875 0.609375 C 9.929688 0.367188 7.191406 0.21875 6.578125 0.15625 C 5.253906 -0.0195312 4.242188 -0.460938 3.546875 -1.171875 C 2.847656 -1.890625 2.394531 -2.910156 2.1875 -4.234375 C 1.988281 -5.691406 1.890625 -7.171875 1.890625 -8.671875 C 1.859375 -12.816406 1.84375 -17.695312 1.84375 -23.3125 C 1.84375 -23.820312 1.875 -25.085938 1.9375 -27.109375 C 2.007812 -29.128906 2.007812 -30.679688 1.9375 -31.765625 C 1.90625 -32.828125 2.175781 -33.613281 2.75 -34.125 C 3.332031 -34.632812 4.148438 -34.890625 5.203125 -34.890625 C 5.710938 -34.890625 6.410156 -34.84375 7.296875 -34.75 C 8.179688 -34.664062 8.757812 -34.625 9.03125 -34.625 C 9.675781 -34.59375 10.644531 -34.550781 11.9375 -34.5 C 13.226562 -34.445312 14.195312 -34.40625 14.84375 -34.375 C 15.59375 -34.34375 16.171875 -34.238281 16.578125 -34.0625 C 17.085938 -33.894531 17.46875 -33.585938 17.71875 -33.140625 C 17.976562 -32.703125 18.085938 -32.226562 18.046875 -31.71875 C 18.015625 -31.175781 17.835938 -30.71875 17.515625 -30.34375 C 17.191406 -29.96875 16.773438 -29.710938 16.265625 -29.578125 C 15.753906 -29.472656 15.160156 -29.457031 14.484375 -29.53125 C 13.804688 -29.5625 11.171875 -29.800781 6.578125 -30.25 Z M 6.578125 -30.25 "/></g></g></g></svg>