<svg xmlns="http://www.w3.org/2000/svg" xmlns:xlink="http://www.w3.org/1999/xlink" width="500" zoomAndPan="magnify" viewBox="0 0 375 374.999991" height="500" preserveAspectRatio="xMidYMid meet" version="1.0"><defs><clipPath id="b2a6bb9e1b"><path d="M 161 245 L 218 245 L 218 303.203125 L 161 303.203125 Z M 161 245 " clip-rule="nonzero"/></clipPath><clipPath id="1c2aa960c5"><path d="M 74.9375 54.203125 L 300.28125 54.203125 L 300.28125 297 L 74.9375 297 Z M 74.9375 54.203125 " clip-rule="nonzero"/></clipPath></defs><path fill="#f6b737" d="M 253.921875 166.320312 C 250.335938 182.050781 242.230469 195.28125 231.632812 207.25 C 226.230469 213.351562 220.621094 219.386719 216.738281 226.613281 C 214.714844 230.382812 213.234375 234.425781 212.3125 238.601562 C 211.390625 242.777344 211.613281 246.957031 210.992188 251.140625 C 209.929688 258.277344 203.148438 259.441406 197.027344 259.402344 C 188.359375 259.347656 179.683594 258.476562 171.171875 256.824219 C 170.4375 257.109375 169.4375 256.878906 169.300781 255.984375 C 168.695312 251.9375 168.105469 247.878906 167.292969 243.867188 C 165.621094 235.585938 162.878906 227.589844 157.617188 220.867188 C 152.90625 214.851562 147.023438 209.894531 141.894531 204.257812 C 132.007812 193.40625 126.3125 179.335938 125.105469 164.761719 C 124.007812 151.527344 126.679688 137.691406 133.671875 126.296875 C 141.125 114.164062 153.171875 106.332031 166.652344 102.265625 C 181.527344 97.785156 198.566406 96.472656 213.9375 98.585938 C 228.707031 100.621094 243.496094 107.699219 250.554688 121.460938 C 257.480469 134.96875 257.222656 151.84375 253.921875 166.320312 " fill-opacity="1" fill-rule="nonzero"/><path fill="#f59a3d" d="M 210.910156 214.597656 C 205.453125 212.664062 204.523438 204.917969 199.398438 210.605469 C 198.847656 211.214844 194.171875 235.574219 194.460938 236.675781 C 198.6875 252.738281 219.160156 217.519531 210.910156 214.597656 Z M 204.332031 114.5 C 207.488281 112.699219 217.953125 114.097656 220.484375 110.421875 C 224.515625 104.570312 215.492188 102.308594 211.011719 101.785156 C 197.804688 100.246094 199.5625 117.222656 204.332031 114.5 Z M 247.023438 139.558594 C 247.054688 159.539062 240.460938 183.964844 226.890625 199.210938 C 222.972656 203.613281 215.019531 211.152344 209.988281 204.222656 C 207.097656 200.242188 210.976562 181.101562 210.820312 176.515625 C 210.40625 164.421875 207.699219 152.914062 206.3125 140.964844 C 205.15625 131.011719 206.605469 127.785156 215.886719 123.792969 C 233.273438 116.304688 246.992188 117.753906 247.023438 139.558594 " fill-opacity="1" fill-rule="nonzero"/><g clip-path="url(#b2a6bb9e1b)"><path fill="#f59a3d" d="M 217.550781 273.019531 C 217.382812 276.742188 215.210938 280.40625 211.601562 281.105469 C 212.882812 284.71875 210.851562 288.59375 207.726562 290.804688 C 207.8125 294.21875 206.929688 297.335938 203.945312 299.664062 C 200.511719 302.339844 195.859375 303.121094 191.613281 303.15625 C 185.578125 303.203125 172.605469 300.332031 173.167969 292.429688 C 171.101562 291.914062 169.066406 291.15625 167.542969 289.714844 C 165.964844 288.222656 165.203125 286.105469 166.09375 284.035156 C 166.683594 282.667969 167.738281 281.746094 168.957031 281.054688 C 165.378906 279.421875 162.464844 276.578125 161.914062 272.425781 C 161.441406 268.859375 163.335938 265.394531 166.511719 263.992188 C 163.789062 260.765625 161.324219 257.082031 161.824219 252.675781 C 162.152344 249.792969 164.03125 247.3125 166.617188 246.367188 C 166.765625 246.113281 167.019531 245.933594 167.367188 245.976562 C 167.546875 246 167.730469 246.019531 167.90625 246.042969 C 168.40625 245.964844 168.925781 245.9375 169.457031 245.980469 C 169.777344 246.003906 170.035156 246.132812 170.226562 246.3125 C 175.730469 246.925781 181.253906 247.324219 186.804688 247.277344 C 193.128906 247.21875 199.261719 246.328125 205.53125 245.644531 C 209.6875 245.191406 214.382812 246.265625 215.609375 250.816406 C 216.683594 254.8125 215.550781 258.960938 213.285156 262.289062 C 216.253906 264.984375 217.734375 268.972656 217.550781 273.019531 " fill-opacity="1" fill-rule="nonzero"/></g><g clip-path="url(#1c2aa960c5)"><path fill="#2e2e30" d="M 205.773438 291.699219 C 201.46875 294.65625 196.707031 294.910156 191.628906 294.898438 C 186 294.890625 180.832031 294.117188 175.40625 292.683594 C 174.605469 292.472656 174.054688 293.652344 174.828125 294.046875 C 180.144531 296.785156 186.75 296.8125 192.585938 296.863281 C 197.449219 296.90625 203.222656 296.824219 206.851562 293.09375 C 207.527344 292.398438 206.628906 291.113281 205.773438 291.699219 Z M 209.085938 280.234375 C 206.136719 280.636719 203.246094 281.757812 200.296875 282.300781 C 197.101562 282.886719 193.863281 283.226562 190.613281 283.320312 C 184.316406 283.507812 178.101562 282.644531 171.984375 281.183594 C 170.910156 280.925781 170.46875 282.515625 171.53125 282.835938 C 177.867188 284.746094 184.503906 285.53125 191.117188 285.398438 C 197.035156 285.28125 204.539062 284.859375 209.871094 282.09375 C 210.988281 281.515625 210.136719 280.09375 209.085938 280.234375 Z M 190.675781 266.886719 C 196.78125 266.585938 204.246094 266.308594 209.863281 263.734375 C 210.628906 263.382812 210.253906 262.082031 209.433594 262.144531 C 206.472656 262.363281 203.546875 263.320312 200.613281 263.804688 C 197.15625 264.375 193.664062 264.769531 190.164062 264.925781 C 183.582031 265.222656 177.242188 264.324219 170.710938 263.902344 C 169.785156 263.84375 169.625 265.261719 170.492188 265.496094 C 176.894531 267.214844 184.105469 267.210938 190.675781 266.886719 Z M 221.980469 163.882812 C 221.871094 163.34375 221.148438 162.964844 220.042969 162.867188 C 219.886719 162.855469 219.730469 162.847656 219.570312 162.847656 C 217.082031 162.847656 214.5625 164.484375 212.851562 166.183594 C 214.054688 166.601562 215.304688 166.820312 216.5 166.820312 C 217.894531 166.820312 219.152344 166.53125 220.242188 165.953125 C 221.585938 165.242188 222.085938 164.402344 221.980469 163.882812 Z M 207.085938 166.738281 L 207 166.707031 L 206.933594 166.652344 C 206.207031 166.035156 205.527344 165.34375 204.914062 164.609375 C 203.851562 163.335938 202.9375 161.867188 202.199219 160.230469 C 200.339844 161.503906 198.222656 162.175781 196.035156 162.175781 C 192.601562 162.175781 189.332031 160.5 187.160156 157.660156 C 184.617188 160.859375 181.53125 162.609375 178.410156 162.609375 C 177.273438 162.609375 176.132812 162.378906 175.011719 161.914062 C 174.601562 164.109375 174.09375 165.882812 173.425781 167.460938 C 173.289062 167.78125 173.066406 168.167969 172.828125 168.578125 C 172.507812 169.128906 171.972656 170.046875 172.007812 170.363281 C 172.0625 170.820312 172.945312 171.84375 173.585938 172.59375 C 174.148438 173.246094 174.679688 173.867188 174.949219 174.363281 C 175.71875 175.792969 176.394531 177.429688 177.011719 179.375 C 179.316406 186.660156 179.703125 194.566406 179.882812 201.402344 C 180.082031 208.859375 179.890625 216.453125 179.703125 223.796875 C 179.660156 225.507812 179.617188 227.222656 179.578125 228.933594 C 179.484375 233.207031 179.355469 237.65625 179.199219 242.148438 C 179.191406 242.40625 179.203125 242.871094 179.214844 243.457031 C 179.230469 244.121094 179.242188 244.78125 179.242188 245.429688 C 182.757812 245.609375 186.273438 245.757812 189.816406 245.671875 C 194.164062 245.570312 198.449219 245.171875 202.742188 244.707031 C 202.378906 242.757812 202.3125 240.175781 202.304688 237.558594 C 202.300781 236.820312 202.300781 236.179688 202.277344 235.796875 C 201.773438 227.414062 201.769531 218.351562 202.265625 207.277344 C 202.359375 205.214844 202.4375 203.144531 202.519531 201.070312 C 202.777344 194.308594 203.042969 187.320312 203.8125 180.542969 C 204.097656 178.054688 204.441406 176.050781 204.898438 174.242188 C 205.046875 173.667969 205.367188 172.832031 205.734375 171.859375 C 206.265625 170.464844 207.511719 167.199219 207.085938 166.738281 Z M 172.539062 155.78125 C 172.570312 155.558594 172.605469 155.324219 172.640625 155.082031 C 173.085938 152.027344 173.761719 147.410156 172.5 145.230469 C 172.097656 144.53125 171.519531 144.113281 170.960938 144.113281 C 170.546875 144.113281 170.140625 144.335938 169.75 144.769531 C 168.894531 145.707031 169.425781 147.808594 169.742188 149.0625 L 169.808594 149.332031 C 170.476562 152.023438 171.375 154.148438 172.539062 155.78125 Z M 187.613281 150.832031 C 188.660156 149.082031 189.8125 147.015625 190.003906 145.113281 C 190.089844 144.285156 189.792969 142.925781 189.269531 142.347656 C 189.144531 142.207031 189.023438 142.136719 188.910156 142.136719 C 188.800781 142.136719 188.492188 142.207031 188.015625 142.859375 C 186.511719 144.90625 186.886719 148.148438 187.613281 150.832031 Z M 203.8125 153.933594 C 206.351562 150.6875 207.480469 148.085938 207.167969 146.203125 C 206.976562 145.074219 205.96875 144.085938 205 144.085938 C 204.21875 144.085938 203.8125 144.761719 203.609375 145.328125 C 202.925781 147.222656 202.996094 150.117188 203.8125 153.933594 Z M 166.414062 170.726562 C 165.769531 170.503906 165.09375 170.390625 164.417969 170.390625 C 163.148438 170.390625 162.027344 170.789062 161.199219 171.523438 C 161.777344 171.796875 162.382812 171.9375 163.011719 171.9375 C 164.320312 171.9375 165.507812 171.355469 166.414062 170.726562 Z M 225.191406 163.363281 C 225.484375 165.816406 223.617188 168.957031 219.570312 169.941406 C 218.6875 170.15625 217.726562 170.265625 216.722656 170.265625 C 216.082031 170.265625 215.414062 170.222656 214.738281 170.132812 C 214.320312 170.078125 213.636719 169.820312 212.839844 169.523438 C 212.066406 169.234375 211 168.835938 210.613281 168.835938 C 209.742188 169.082031 208.527344 171.097656 207.632812 179.296875 L 207.578125 179.796875 C 205.371094 198.910156 204.789062 218.257812 205.847656 237.3125 C 205.859375 237.507812 205.914062 237.945312 205.980469 238.5 C 206.21875 240.5 206.441406 242.585938 206.441406 244.296875 C 207.195312 244.214844 207.945312 244.128906 208.699219 244.046875 C 209.882812 243.917969 210.128906 245.894531 208.976562 246.109375 C 202.703125 247.273438 196.1875 247.640625 189.816406 247.761719 C 183.488281 247.882812 176.902344 247.84375 170.65625 246.734375 C 169.675781 246.5625 169.925781 245 170.886719 245.03125 C 172.425781 245.082031 173.964844 245.15625 175.5 245.234375 C 175.507812 242.085938 175.710938 237.730469 176.09375 231.839844 C 176.199219 230.25 176.28125 229 176.292969 228.457031 C 176.421875 221.207031 176.539062 212.652344 176.417969 204.195312 C 176.320312 197.011719 175.933594 189.351562 173.820312 182.023438 C 173.75 181.789062 173.671875 181.488281 173.582031 181.148438 C 173.003906 179.011719 171.65625 174.007812 169.910156 173.277344 C 169.90625 173.273438 169.871094 173.261719 169.785156 173.261719 C 169.269531 173.261719 168.203125 173.703125 167.171875 174.128906 C 165.683594 174.75 163.996094 175.449219 162.667969 175.449219 C 162.570312 175.449219 162.476562 175.445312 162.386719 175.4375 C 160.46875 175.285156 157.96875 174.492188 157.238281 172.773438 C 156.9375 172.066406 156.832031 170.910156 158.050781 169.425781 C 159.464844 167.714844 161.621094 166.773438 164.128906 166.773438 C 164.398438 166.773438 164.664062 166.78125 164.929688 166.804688 C 165.511719 166.851562 166.207031 167.128906 166.878906 167.398438 C 167.511719 167.652344 168.167969 167.917969 168.574219 167.917969 C 168.597656 167.917969 168.625 167.917969 168.648438 167.914062 C 169.464844 167.824219 169.9375 166.632812 170.394531 165.484375 L 170.660156 164.816406 C 171.097656 163.742188 171.695312 162.273438 171.695312 161.222656 C 171.699219 159.847656 171.414062 159.515625 170.734375 158.707031 C 170.476562 158.40625 170.183594 158.058594 169.847656 157.589844 C 167.917969 154.902344 164.941406 148.109375 166.445312 143.851562 C 167.03125 142.195312 168.21875 141.105469 169.976562 140.621094 C 170.511719 140.472656 171.023438 140.398438 171.5 140.398438 C 172.628906 140.398438 173.589844 140.808594 174.347656 141.621094 C 176.550781 143.984375 176.449219 149.128906 176.308594 151.234375 C 176.273438 151.726562 176.113281 152.578125 175.925781 153.5625 C 175.65625 155.003906 175.089844 158.011719 175.394531 158.5 C 175.929688 159.257812 176.964844 159.417969 177.738281 159.417969 C 179.265625 159.417969 181.089844 158.800781 181.972656 158.207031 C 183.046875 157.480469 184.324219 156.320312 184.75 155.363281 C 185.234375 154.273438 185.015625 153.554688 184.683594 152.46875 C 184.546875 152.015625 184.390625 151.503906 184.277344 150.910156 C 183.515625 147.011719 183.769531 143.929688 185.03125 141.757812 C 185.945312 140.1875 187.730469 138.605469 189.664062 138.605469 C 190.414062 138.605469 191.125 138.839844 191.773438 139.300781 C 194.597656 141.3125 193.578125 145.628906 193.007812 147.386719 C 192.75 148.191406 191.988281 149.371094 191.179688 150.617188 C 190.265625 152.035156 189.011719 153.972656 189.074219 154.699219 C 189.210938 156.203125 192.425781 158.179688 194.050781 158.632812 C 194.566406 158.777344 195.242188 158.859375 195.945312 158.859375 C 198.148438 158.859375 200.648438 158.121094 200.933594 156.5 C 201.121094 155.433594 200.730469 153.945312 200.351562 152.507812 C 200.023438 151.269531 199.683594 149.988281 199.683594 148.875 C 199.683594 147.078125 200.273438 145.011719 201.269531 143.351562 C 202.414062 141.433594 203.886719 140.378906 205.414062 140.378906 C 206.800781 140.378906 208.121094 141.226562 209.34375 142.894531 C 211.070312 145.253906 210.964844 148.507812 209.03125 152.296875 L 206.605469 155.980469 C 206.347656 156.304688 206.121094 156.566406 205.925781 156.789062 C 205.089844 157.746094 205.039062 157.800781 205.644531 159.441406 C 206.199219 160.941406 207.449219 162.390625 208.144531 163.125 C 208.539062 163.539062 209.203125 164.234375 209.425781 164.234375 C 209.53125 164.234375 209.773438 164.070312 210.050781 163.878906 C 210.273438 163.726562 210.535156 163.546875 210.867188 163.347656 C 211.523438 162.960938 212.132812 162.546875 212.71875 162.144531 C 214.414062 160.988281 216.019531 159.890625 218.472656 159.574219 C 218.941406 159.515625 219.40625 159.484375 219.839844 159.484375 C 223.441406 159.484375 224.964844 161.488281 225.191406 163.363281 Z M 271.644531 227.429688 C 268.078125 224.480469 264.21875 221.914062 260.664062 218.941406 C 257.261719 216.101562 254.179688 212.808594 250.605469 210.179688 C 249.472656 209.347656 247.875 210.988281 248.664062 212.117188 C 251.285156 215.859375 254.992188 218.898438 258.511719 221.769531 C 262.0625 224.671875 265.777344 227.632812 269.875 229.714844 C 271.265625 230.421875 272.988281 228.542969 271.644531 227.429688 Z M 299.511719 193.804688 C 294.988281 190.507812 289.867188 187.972656 284.921875 185.386719 C 280.382812 183.011719 275.210938 179.519531 270.101562 178.707031 C 268.710938 178.488281 267.273438 180.183594 268.574219 181.324219 C 272.492188 184.765625 278.1875 186.628906 282.816406 188.980469 C 287.816406 191.523438 292.695312 194.429688 297.855469 196.628906 C 299.789062 197.453125 301.238281 195.0625 299.511719 193.804688 Z M 273.066406 127.25 C 277.421875 126.550781 281.699219 125.03125 285.933594 123.804688 C 290.167969 122.570312 294.582031 121.539062 298.671875 119.890625 C 300.492188 119.160156 299.828125 116.585938 297.859375 116.9375 C 293.34375 117.746094 288.886719 119.28125 284.480469 120.542969 C 280.269531 121.746094 275.929688 122.761719 271.890625 124.46875 C 270.179688 125.195312 271.511719 127.5 273.066406 127.25 Z M 258.328125 71.101562 C 259.425781 69.578125 256.929688 68.183594 255.828125 69.644531 C 252.726562 73.746094 249.550781 77.792969 246.300781 81.78125 C 243.347656 85.394531 240.019531 88.84375 237.410156 92.714844 C 236.464844 94.117188 238.507812 95.515625 239.667969 94.453125 C 243.371094 91.066406 246.453125 86.734375 249.542969 82.796875 C 252.554688 78.960938 255.472656 75.054688 258.328125 71.101562 Z M 189.820312 85.386719 C 190.4375 80.570312 189.628906 75.34375 189.527344 70.484375 C 189.417969 65.515625 189.464844 60.542969 189.425781 55.574219 C 189.410156 53.726562 186.710938 53.765625 186.578125 55.574219 C 186.203125 60.710938 186.128906 65.871094 186.152344 71.019531 C 186.175781 75.78125 185.804688 81.125 186.957031 85.773438 C 187.382812 87.5 189.625 86.902344 189.820312 85.386719 Z M 122.734375 91.804688 C 119.730469 87.859375 116.878906 83.554688 113.464844 79.949219 C 112.296875 78.710938 110.246094 80.300781 111.117188 81.761719 C 113.765625 86.203125 117.28125 90.289062 120.390625 94.417969 C 123.351562 98.34375 126.140625 102.824219 129.6875 106.25 C 130.894531 107.410156 132.769531 105.941406 131.988281 104.476562 C 129.5625 99.960938 125.835938 95.875 122.734375 91.804688 Z M 104.753906 145.375 C 108.074219 145.792969 111.5625 146.480469 114.910156 146.179688 C 116.714844 146.015625 117.191406 143.535156 115.347656 142.953125 C 112.476562 142.050781 109.332031 141.90625 106.355469 141.539062 C 102.796875 141.097656 99.238281 140.628906 95.6875 140.132812 C 89.316406 139.238281 82.964844 138.042969 76.566406 137.339844 C 74.664062 137.128906 74.3125 140.183594 76.121094 140.640625 C 82.523438 142.261719 89.160156 143.171875 95.6875 144.136719 C 98.707031 144.582031 101.726562 144.996094 104.753906 145.375 Z M 119.941406 199.53125 C 115.804688 202.359375 111.195312 204.515625 106.875 207.0625 C 102.875 209.421875 98.828125 212.882812 94.476562 214.457031 C 93.019531 214.988281 92.199219 213.039062 93.070312 212.050781 C 94.695312 210.21875 97.023438 208.976562 99.074219 207.664062 C 101.191406 206.308594 103.332031 204.988281 105.496094 203.707031 C 109.765625 201.191406 114.128906 198.53125 118.828125 196.898438 C 120.46875 196.324219 121.207031 198.664062 119.941406 199.53125 " fill-opacity="1" fill-rule="nonzero"/></g><path fill="#f59a3d" d="M 144.402344 182.394531 C 143.648438 180.253906 143.367188 178.050781 142.148438 176.113281 C 141.851562 175.636719 141.128906 175.730469 140.964844 176.269531 C 139.605469 180.71875 141.570312 186.105469 143.804688 189.984375 C 145.636719 193.171875 148.546875 198.367188 152.535156 198.828125 C 153.027344 198.882812 153.472656 198.355469 153.464844 197.902344 C 153.375 194.3125 149.351562 191.308594 147.515625 188.472656 C 146.277344 186.566406 145.160156 184.539062 144.402344 182.394531 Z M 157.382812 126.003906 C 151.996094 129.300781 148.167969 134.625 145.832031 140.414062 C 143.035156 147.34375 143.257812 154.605469 141.5625 161.742188 C 141.167969 163.410156 138.332031 163.550781 138.035156 161.742188 C 136.785156 153.972656 138.660156 144.972656 141.78125 137.828125 C 144.597656 131.371094 149.214844 126.035156 155.449219 122.703125 C 157.625 121.539062 159.488281 124.71875 157.382812 126.003906 " fill-opacity="1" fill-rule="nonzero"/></svg>